<?xml version="1.0" encoding="UTF-8" standalone="no"?>
<!-- Created with Inkscape (http://www.inkscape.org/) -->

<svg
   width="512"
   height="512"
   viewBox="0 0 135.46667 135.46667"
   version="1.1"
   id="svg1"
   xml:space="preserve"
   inkscape:version="1.3.2 (091e20e, 2023-11-25, custom)"
   sodipodi:docname="icon.svg"
   inkscape:export-filename="icon.png"
   inkscape:export-xdpi="96"
   inkscape:export-ydpi="96"
   xmlns:inkscape="http://www.inkscape.org/namespaces/inkscape"
   xmlns:sodipodi="http://sodipodi.sourceforge.net/DTD/sodipodi-0.dtd"
   xmlns:xlink="http://www.w3.org/1999/xlink"
   xmlns="http://www.w3.org/2000/svg"
   xmlns:svg="http://www.w3.org/2000/svg"><sodipodi:namedview
     id="namedview1"
     pagecolor="#ffffff"
     bordercolor="#666666"
     borderopacity="1.0"
     inkscape:showpageshadow="2"
     inkscape:pageopacity="0.0"
     inkscape:pagecheckerboard="0"
     inkscape:deskcolor="#d1d1d1"
     inkscape:document-units="mm"
     inkscape:zoom="1.7402344"
     inkscape:cx="256.28731"
     inkscape:cy="256.57463"
     inkscape:window-width="1920"
     inkscape:window-height="1129"
     inkscape:window-x="1912"
     inkscape:window-y="-8"
     inkscape:window-maximized="1"
     inkscape:current-layer="layer1"
     showgrid="false"
     showborder="true" /><defs
     id="defs1"><linearGradient
       id="linearGradient47"
       inkscape:collect="always"><stop
         style="stop-color:#d4d8e7;stop-opacity:1;"
         offset="0"
         id="stop47" /><stop
         style="stop-color:#081b36;stop-opacity:1;"
         offset="1"
         id="stop48" /></linearGradient><linearGradient
       id="linearGradient30"
       inkscape:collect="always"><stop
         style="stop-color:#00ff49;stop-opacity:1;"
         offset="0"
         id="stop30" /><stop
         style="stop-color:#c2ffd9;stop-opacity:1;"
         offset="1"
         id="stop31" /></linearGradient><linearGradient
       inkscape:collect="always"
       xlink:href="#linearGradient30"
       id="linearGradient31"
       x1="4.7624998"
       y1="6.0854163"
       x2="4.7624998"
       y2="3.4395833"
       gradientUnits="userSpaceOnUse"
       gradientTransform="matrix(11.339969,0,0,11.339969,-4.2920162,-4.2758246)" /><linearGradient
       inkscape:collect="always"
       xlink:href="#linearGradient47"
       id="linearGradient48"
       x1="8.7829666"
       y1="13.489005"
       x2="5.0689406"
       y2="1.9386413"
       gradientUnits="userSpaceOnUse"
       gradientTransform="matrix(11.339969,0,0,11.339969,-4.2920162,-4.2758246)" /></defs><g
     inkscape:label="Layer 1"
     inkscape:groupmode="layer"
     id="layer1"><circle
       style="fill:#1a1a1a;fill-opacity:1;fill-rule:evenodd;stroke:none;stroke-width:4.71659;stroke-linejoin:round;stroke-dasharray:none;stroke-opacity:1"
       id="path14"
       cx="67.555153"
       cy="68.056252"
       r="61.664104" /><circle
       style="fill:url(#linearGradient31);fill-opacity:1;fill-rule:evenodd;stroke:none;stroke-width:8.50106;stroke-linecap:round;stroke-linejoin:round;stroke-dasharray:none;stroke-opacity:1"
       id="circle29"
       cx="49.714584"
       cy="49.730778"
       r="15.001834" /><circle
       style="fill:#454a4f;fill-opacity:1;fill-rule:evenodd;stroke:none;stroke-width:8.50106;stroke-linecap:round;stroke-linejoin:round;stroke-dasharray:none;stroke-opacity:1"
       id="circle30"
       cx="85.718994"
       cy="49.730778"
       r="15.001834" /><circle
       style="fill:none;fill-opacity:1;fill-rule:evenodd;stroke:#707984;stroke-width:6.45429;stroke-linecap:round;stroke-linejoin:round;stroke-dasharray:none;stroke-opacity:1"
       id="path22"
       cx="67.73333"
       cy="67.76902"
       r="60.634716" /><circle
       style="fill:none;fill-opacity:1;fill-rule:evenodd;stroke:url(#linearGradient48);stroke-width:5.92294;stroke-linecap:round;stroke-linejoin:round;stroke-dasharray:none;stroke-opacity:1"
       id="circle47"
       r="55.642883"
       cy="67.76902"
       cx="67.73333" /><path
       style="fill:#cddbe8;fill-opacity:1;stroke:none;stroke-width:12.845"
       d="m 62.700056,134.28497 c -0.08608,-1.65186 0.49117,-13.32978 1.241614,-14.04023 0.750445,-0.7104 6.780284,-0.72224 7.56051,-0.032 0.542647,0.48 1.147498,12.43359 1.059907,14.01113 -0.08757,1.57755 -9.77596,1.71333 -9.862026,0.0608 z"
       id="path10"
       sodipodi:nodetypes="zzzzz" /><path
       style="fill:#cddbe8;fill-opacity:1;stroke:none;stroke-width:12.845"
       d="m 72.562078,1.1819684 c 0.08608,1.6518592 -0.491169,13.3297826 -1.241612,14.0402326 -0.750445,0.710444 -6.780284,0.722241 -7.560511,0.03179 -0.542647,-0.480022 -1.147497,-12.4335847 -1.059907,-14.0111331 0.08757,-1.57754851 9.77596,-1.71332197 9.862025,-0.061238 z"
       id="path31"
       sodipodi:nodetypes="zzzzz" /><path
       style="fill:#cddbe8;fill-opacity:1;stroke:none;stroke-width:12.845"
       d="m 122.80085,105.2796 c -1.47359,-0.75138 -11.29834,-7.090255 -11.53839,-8.095385 -0.24011,-1.005133 2.76467,-6.233019 3.75277,-6.563469 0.68693,-0.229942 11.34154,5.223031 12.66393,6.087664 1.32243,0.864589 -3.4042,9.32289 -4.87797,8.57138 z"
       id="path32"
       sodipodi:nodetypes="zzzzz" /><path
       style="fill:#cddbe8;fill-opacity:1;stroke:none;stroke-width:12.845"
       d="m 12.461282,30.187338 c 1.473589,0.75139 11.298347,7.090256 11.538393,8.095385 0.240044,1.005129 -2.764662,6.233019 -3.752759,6.56347 C 19.55988,45.076132 8.9053675,39.623162 7.5829684,38.758528 6.2605433,37.893938 10.987167,29.435638 12.46095,30.187145 Z"
       id="path33"
       sodipodi:nodetypes="zzzzz" /><path
       style="fill:#cddbe8;fill-opacity:1;stroke:none;stroke-width:12.845"
       d="m 127.73187,38.728101 c -1.38752,0.900471 -11.78953,6.239526 -12.78001,5.944846 -0.99051,-0.294678 -4.01562,-5.510778 -3.80775,-6.531718 0.14432,-0.709965 10.19406,-7.210554 11.60404,-7.923468 1.40997,-0.712951 6.37176,7.609568 4.98405,8.510147 z"
       id="path34"
       sodipodi:nodetypes="zzzzz" /><path
       style="fill:#cddbe8;fill-opacity:1;stroke:none;stroke-width:12.845"
       d="M 7.5302715,96.738839 C 8.9177893,95.83837 19.319786,90.499312 20.310276,90.793992 c 0.99049,0.294679 4.015623,5.510777 3.807753,6.531718 -0.144384,0.70996 -10.194052,7.21056 -11.604046,7.92347 -1.40997,0.71296 -6.3717606,-7.60957 -4.9840448,-8.510148 z"
       id="path35"
       sodipodi:nodetypes="zzzzz" /><circle
       style="fill:#454a4f;fill-opacity:1;fill-rule:evenodd;stroke:none;stroke-width:8.50106;stroke-linecap:round;stroke-linejoin:round;stroke-dasharray:none;stroke-opacity:1"
       id="circle41"
       cx="85.718994"
       cy="85.735184"
       r="15.001834" /><circle
       style="fill:#454a4f;fill-opacity:1;fill-rule:evenodd;stroke:none;stroke-width:8.50106;stroke-linecap:round;stroke-linejoin:round;stroke-dasharray:none;stroke-opacity:1"
       id="circle42"
       cx="49.714584"
       cy="85.735184"
       r="15.001834" /></g></svg>
