<svg xmlns="http://www.w3.org/2000/svg" viewBox="0 0 1032 260">
  <path fill="currentColor" d="M353.407 4v124.459c0 68.513.3 124.859.7 125.158.299.4 26.233.7 57.554.7 51.67 0 58.154-.2 69.924-1.995 19.351-2.892 30.324-6.383 45.586-14.062 43.092-22.14 68.828-67.116 66.234-115.783-2.892-55.748-39.8-99.827-95.361-113.989C482.184 4.5 472.509 4 411.263 4Zm47 44h30.723c32.12 0 45.487.897 54.963 3.59 28.628 8.277 46.583 23.836 55.66 48.369 4.389 11.668 5.686 18.748 5.586 30.316-.1 15.658-4.589 29.92-13.865 44.08-10.873 16.356-27.93 27.824-49.776 33.409-7.082 1.795-11.97 2.093-44.886 2.492-20.25.299-37.207.2-37.606-.299-.499-.399-.799-36.998-.799-81.377zM166.154 105.216c2.593 5.185 20.648 42.085 40 81.976 19.45 39.89 35.51 72.402 35.71 72.202s18.852-57.542 41.595-127.352L324.656 4.99l-23.541-.299c-12.868-.1-23.84.1-24.24.499-.498.498-10.273 31.514-21.844 69.111-11.472 37.597-21.347 69.21-21.846 70.308-.897 2.194 2.594 9.374-42.992-86.364C175.131 26.63 162.563.9 162.263 1c-.299.2-15.96 32.71-34.812 72.303-18.953 39.492-34.713 71.504-35.112 71.105-.4-.398-10.474-32.112-22.444-70.407L48.15 4.49H23.81C1.168 4.49-.428 4.59.07 6.286 2.664 14.464 77.775 254.109 78.673 256.8c1.097 3.49 1.396 2.992 41.995-78.784l40.797-82.276zM625.411 252.823c46.184-8.976 74.813-36.7 85.885-83.273 1.197-4.986 1.895-14.76 2.394-34.406.798-28.522 1.995-37.298 6.184-48.766 7.182-19.248 26.534-33.908 48.379-36.5 9.975-1.297 9.376.398 9.077-23.736L777.03 5l-8.478.1c-23.94.299-53.067 13.263-70.722 31.613-13.566 13.962-21.945 30.318-27.232 52.557-1.596 6.781-2.095 14.161-2.793 36.4-.798 29.819-1.796 37.298-6.584 48.568-8.18 19.446-24.937 31.813-47.78 35.104l-7.98 1.196-.299 22.14-.2 22.14h4.888c2.793 0 9.776-.898 15.561-1.995" style="fill-rule:evenodd;stroke:none;stroke-width:1"/>
  <path fill="currentColor" d="M905.8 107H826v38.894h79.8v-19.447z" style="fill-rule:evenodd;stroke:none;stroke-width:1" transform="translate(-43.853)"/>
  <path fill="currentColor" d="M919.112 88.712h-42.295Q878.52 48.671 899.9 25.79q21.535-23.05 55.154-23.05 20.76 0 36.563 9.59 15.958 9.423 25.408 27.424 9.606 17.833 9.606 36.34 0 22.04-11.62 47.444-11.465 25.404-42.14 60.062l-25.563 29.274h81.182v43.574H876.884v-24.822l64.228-75.786q25.563-28.095 33.929-45.088 8.52-17.16 8.521-30.957 0-14.3-8.83-23.554-8.677-9.42-22.465-9.421-13.944 0-23.24 11.272t-9.915 30.62" style="fill-rule:evenodd;stroke:none;stroke-width:1"/>
</svg>
